<svg width="1144.519970703125px" height="123.68001098632813px" xmlns="http://www.w3.org/2000/svg" viewBox="-322.2599853515625 13.159994506835936 1144.519970703125 123.68001098632813" style="background:#596886" preserveAspectRatio="xMidYMid"><defs><filter id="editing-hover" x="-100%" y="-100%" width="300%" height="300%"><feFlood flood-color="#052b4a" result="flood"></feFlood><feComposite operator="in" in2="SourceAlpha" in="flood" result="shadow"></feComposite><feOffset dx="-4" dy="-4" in="SourceGraphic" result="offset-1"></feOffset><feOffset dx="4" dy="4" in="shadow" result="offset-2"></feOffset><feMerge><feMergeNode in="offset-2"></feMergeNode><feMergeNode in="offset-1"></feMergeNode></feMerge></filter></defs><g filter="url(#editing-hover)"><g transform="translate(-163.19439458847046, 104.79000091552734)"><path d="M2.69-39.68L2.69-39.68L2.69-39.68Q3.58-41.47 5.54-42.46L5.54-42.46L5.54-42.46Q7.49-43.46 10.18-43.46L10.18-43.46L10.18-43.46Q14.40-43.46 16.93-40.42L16.93-40.42L16.93-40.42Q19.46-37.38 19.46-30.72L19.46-30.72L19.46-7.87L34.11-42.18L41.66-42.18L43.39-9.79L43.20-7.94L58.43-42.18L67.20-42.18L46.72 0L33.09 0L31.81-19.46L23.36 0L7.94 0L6.02-30.72L6.02-30.72Q5.82-34.18 4.90-36.45L4.90-36.45L4.90-36.45Q3.97-38.72 2.69-39.68ZM89.28-10.82L89.28-10.82L89.28-10.82Q90.88-9.73 90.88-7.33L90.88-7.33L90.88-7.33Q90.88-4.93 89.66-3.39L89.66-3.39L89.66-3.39Q88.45-1.86 86.46-0.83L86.46-0.83L86.46-0.83Q82.37 1.28 77.95 1.28L77.95 1.28L77.95 1.28Q73.54 1.28 70.94 0.32L70.94 0.32L70.94 0.32Q68.35-0.64 66.62-2.43L66.62-2.43L66.62-2.43Q63.23-5.82 63.23-12.03L63.23-12.03L63.23-12.03Q63.23-21.70 68.48-27.58L68.48-27.58L68.48-27.58Q74.11-33.92 83.90-33.92L83.90-33.92L83.90-33.92Q89.98-33.92 92.99-31.36L92.99-31.36L92.99-31.36Q95.23-29.44 95.23-26.30L95.23-26.30L95.23-26.30Q95.23-15.04 75.78-15.04L75.78-15.04L75.78-15.04Q75.52-13.38 75.52-11.97L75.52-11.97L75.52-11.97Q75.52-9.02 76.83-7.90L76.83-7.90L76.83-7.90Q78.14-6.78 80.58-6.78L80.58-6.78L80.58-6.78Q83.01-6.78 85.60-7.90L85.60-7.90L85.60-7.90Q88.19-9.02 89.28-10.82ZM76.22-17.79L76.22-17.79L76.22-17.79Q80.77-17.79 83.39-20.61L83.39-20.61L83.39-20.61Q86.02-23.30 86.02-27.58L86.02-27.58L86.02-27.58Q86.02-29.06 85.47-29.86L85.47-29.86L85.47-29.86Q84.93-30.66 83.84-30.66L83.84-30.66L83.84-30.66Q82.75-30.66 81.82-30.24L81.82-30.24L81.82-30.24Q80.90-29.82 79.94-28.42L79.94-28.42L79.94-28.42Q77.57-25.22 76.22-17.79ZM156.67 1.28L156.67 1.28L156.67 1.28Q148.93 1.28 148.93-4.74L148.93-4.74L148.93-4.74Q148.93-7.36 150.05-12.45L150.05-12.45L150.05-12.45Q151.17-17.54 151.55-19.58L151.55-19.58L151.55-19.58Q152.45-24.26 152.45-25.73L152.45-25.73L152.45-25.73Q152.45-28.99 150.02-28.99L150.02-28.99L150.02-28.99Q148.42-28.99 146.88-26.78L146.88-26.78L146.88-26.78Q145.34-24.58 144.64-20.16L144.64-20.16L140.67 0L128.19 1.28L131.65-16.13L131.65-16.13Q132.22-19.01 132.74-22.27L132.74-22.27L132.74-22.27Q133.25-25.54 133.25-26.05L133.25-26.05L133.25-26.05Q133.25-28.99 131.07-28.99L131.07-28.99L131.07-28.99Q129.60-28.99 128.00-26.82L128.00-26.82L128.00-26.82Q126.40-24.64 125.50-20.16L125.50-20.16L121.60 0L108.99 1.28L115.71-32.64L126.14-33.92L125.06-27.46L125.06-27.46Q126.72-30.91 129.79-32.42L129.79-32.42L129.79-32.42Q132.86-33.92 137.66-33.92L137.66-33.92L137.66-33.92Q140.42-33.92 142.21-32.58L142.21-32.58L142.21-32.58Q144-31.23 144.58-29.06L144.58-29.06L144.58-29.06Q145.66-31.30 148.45-32.61L148.45-32.61L148.45-32.61Q151.23-33.92 154.66-33.92L154.66-33.92L154.66-33.92Q158.08-33.92 159.78-33.18L159.78-33.18L159.78-33.18Q161.47-32.45 162.50-31.23L162.50-31.23L162.50-31.23Q164.22-28.99 164.22-24.90L164.22-24.90L164.22-24.90Q164.22-20.86 162.50-12.48L162.50-12.48L162.50-12.48Q161.60-8.38 161.60-6.88L161.60-6.88L161.60-6.88Q161.60-5.38 162.46-4.48L162.46-4.48L162.46-4.48Q163.33-3.58 164.61-3.46L164.61-3.46L164.61-3.46Q163.97-1.28 161.76 0L161.76 0L161.76 0Q159.55 1.28 156.67 1.28ZM172.32-1.92L172.32-1.92L172.32-1.92Q170.82-3.58 170.14-6.21L170.14-6.21L170.14-6.21Q169.47-8.83 169.47-13.12L169.47-13.12L169.47-13.12Q169.47-17.41 170.94-21.31L170.94-21.31L170.94-21.31Q172.42-25.22 175.10-28.03L175.10-28.03L175.10-28.03Q180.61-33.92 189.70-33.92L189.70-33.92L189.70-33.92Q192.96-33.92 195.33-32.83L195.33-32.83L206.27-33.92L201.54-8.96L201.54-8.96Q201.34-8.19 201.34-6.78L201.34-6.78L201.34-6.78Q201.34-5.38 202.21-4.48L202.21-4.48L202.21-4.48Q203.07-3.58 204.35-3.46L204.35-3.46L204.35-3.46Q203.71-1.28 201.38 0L201.38 0L201.38 0Q199.04 1.28 196.42 1.28L196.42 1.28L196.42 1.28Q193.79 1.28 192.03 0.29L192.03 0.29L192.03 0.29Q190.27-0.70 189.76-2.37L189.76-2.37L189.76-2.37Q188.74-0.77 186.56 0.26L186.56 0.26L186.56 0.26Q184.38 1.28 181.47 1.28L181.47 1.28L181.47 1.28Q178.56 1.28 176.19 0.51L176.19 0.51L176.19 0.51Q173.82-0.26 172.32-1.92ZM185.82-27.90L185.82-27.90L185.82-27.90Q185.09-26.75 184.45-24.80L184.45-24.80L184.45-24.80Q183.81-22.85 182.75-17.63L182.75-17.63L182.75-17.63Q181.70-12.42 181.70-8.70L181.70-8.70L181.70-8.70Q181.70-4.99 182.27-3.90L182.27-3.90L182.27-3.90Q182.85-2.82 183.87-2.82L183.87-2.82L183.87-2.82Q185.92-2.82 187.42-4.77L187.42-4.77L187.42-4.77Q188.93-6.72 189.50-10.18L189.50-10.18L192.90-28.93L192.90-28.93Q191.55-30.08 189.98-30.08L189.98-30.08L189.98-30.08Q188.42-30.08 187.49-29.57L187.49-29.57L187.49-29.57Q186.56-29.06 185.82-27.90ZM226.24-30.34L226.24-30.34L226.24-30.34Q229.70-33.92 236.99-33.92L236.99-33.92L236.99-33.92Q241.02-33.92 243.23-31.78L243.23-31.78L243.23-31.78Q245.44-29.63 245.44-25.70L245.44-25.70L245.44-25.70Q245.44-21.76 243.23-18.98L243.23-18.98L243.23-18.98Q241.02-16.19 236.93-15.04L236.93-15.04L236.93-15.04Q237.25-13.76 237.70-12.42L237.70-12.42L238.59-9.86L238.59-9.86Q239.81-6.59 240.77-5.44L240.77-5.44L240.77-5.44Q241.73-4.29 243.01-3.90L243.01-3.90L243.01-3.90Q242.30-1.28 239.74 0.13L239.74 0.13L239.74 0.13Q237.70 1.28 234.88 1.28L234.88 1.28L234.88 1.28Q226.62 1.28 225.54-11.46L225.54-11.46L225.54-11.46Q225.34-13.25 225.34-15.04L225.34-15.04L225.34-15.04Q228.54-15.94 230.78-18.94L230.78-18.94L230.78-18.94Q233.02-21.95 233.02-25.47L233.02-25.47L233.02-25.47Q233.02-28.99 230.53-28.99L230.53-28.99L230.53-28.99Q228.74-28.99 227.33-27.01L227.33-27.01L227.33-27.01Q225.92-25.02 225.28-21.63L225.28-21.63L221.06 0L208.13 1.28L217.09-44.80L229.95-46.08L228.48-38.46L228.48-38.46Q227.52-33.09 226.24-30.34ZM274.30-10.82L274.30-10.82L274.30-10.82Q275.90-9.73 275.90-7.33L275.90-7.33L275.90-7.33Q275.90-4.93 274.69-3.39L274.69-3.39L274.69-3.39Q273.47-1.86 271.49-0.83L271.49-0.83L271.49-0.83Q267.39 1.28 262.98 1.28L262.98 1.28L262.98 1.28Q258.56 1.28 255.97 0.32L255.97 0.32L255.97 0.32Q253.38-0.64 251.65-2.43L251.65-2.43L251.65-2.43Q248.26-5.82 248.26-12.03L248.26-12.03L248.26-12.03Q248.26-21.70 253.50-27.58L253.50-27.58L253.50-27.58Q259.14-33.92 268.93-33.92L268.93-33.92L268.93-33.92Q275.01-33.92 278.02-31.36L278.02-31.36L278.02-31.36Q280.26-29.44 280.26-26.30L280.26-26.30L280.26-26.30Q280.26-15.04 260.80-15.04L260.80-15.04L260.80-15.04Q260.54-13.38 260.54-11.97L260.54-11.97L260.54-11.97Q260.54-9.02 261.86-7.90L261.86-7.90L261.86-7.90Q263.17-6.78 265.60-6.78L265.60-6.78L265.60-6.78Q268.03-6.78 270.62-7.90L270.62-7.90L270.62-7.90Q273.22-9.02 274.30-10.82ZM261.25-17.79L261.25-17.79L261.25-17.79Q265.79-17.79 268.42-20.61L268.42-20.61L268.42-20.61Q271.04-23.30 271.04-27.58L271.04-27.58L271.04-27.58Q271.04-29.06 270.50-29.86L270.50-29.86L270.50-29.86Q269.95-30.66 268.86-30.66L268.86-30.66L268.86-30.66Q267.78-30.66 266.85-30.24L266.85-30.24L266.85-30.24Q265.92-29.82 264.96-28.42L264.96-28.42L264.96-28.42Q262.59-25.22 261.25-17.79ZM296.64-6.40L296.64-6.40L296.64-6.40Q296.64-8.13 297.54-12.48L297.54-12.48L300.93-29.76L297.15-29.76L297.41-31.68L297.41-31.68Q305.09-33.98 312.51-39.62L312.51-39.62L315.58-39.62L314.05-32.64L319.04-32.64L318.46-29.76L313.54-29.76L310.27-12.48L310.27-12.48Q309.44-8.51 309.44-7.17L309.44-7.17L309.44-7.17Q309.44-4.10 312.13-3.46L312.13-3.46L312.13-3.46Q311.49-1.28 309.18 0L309.18 0L309.18 0Q306.88 1.28 303.62 1.28L303.62 1.28L303.62 1.28Q300.35 1.28 298.50-0.77L298.50-0.77L298.50-0.77Q296.64-2.82 296.64-6.40ZM350.91-7.10L350.91-7.10L350.91-7.10Q350.91-4.29 353.79-3.46L353.79-3.46L353.79-3.46Q353.09-1.09 350.34 0.19L350.34 0.19L350.34 0.19Q348.03 1.28 345.50 1.28L345.50 1.28L345.50 1.28Q342.98 1.28 341.66 0.61L341.66 0.61L341.66 0.61Q340.35-0.06 339.65-1.15L339.65-1.15L339.65-1.15Q338.50-2.82 338.50-5.95L338.50-5.95L338.50-5.95Q338.50-7.81 339.52-12.93L339.52-12.93L340.42-17.79L340.42-17.79Q341.50-23.36 341.50-25.41L341.50-25.41L341.50-25.41Q341.50-28.99 339.52-28.99L339.52-28.99L339.52-28.99Q337.02-28.99 335.42-25.34L335.42-25.34L335.42-25.34Q334.78-23.94 334.34-21.82L334.34-21.82L329.98 0L317.12 1.28L326.14-44.80L339.01-46.08L338.50-43.52L338.50-43.52Q336.70-33.66 335.17-30.34L335.17-30.34L335.17-30.34Q338.75-33.92 345.34-33.92L345.34-33.92L345.34-33.92Q352.32-33.92 353.60-29.31L353.60-29.31L353.60-29.31Q354.05-27.84 354.05-26.56L354.05-26.56L354.05-26.56Q354.05-25.28 353.95-24.29L353.95-24.29L353.95-24.29Q353.86-23.30 353.54-21.50L353.54-21.50L352.70-16.90L351.23-9.66L351.23-9.66Q350.91-8.19 350.91-7.10ZM384.90-10.82L384.90-10.82L384.90-10.82Q386.50-9.73 386.50-7.33L386.50-7.33L386.50-7.33Q386.50-4.93 385.28-3.39L385.28-3.39L385.28-3.39Q384.06-1.86 382.08-0.83L382.08-0.83L382.08-0.83Q377.98 1.28 373.57 1.28L373.57 1.28L373.57 1.28Q369.15 1.28 366.56 0.32L366.56 0.32L366.56 0.32Q363.97-0.64 362.24-2.43L362.24-2.43L362.24-2.43Q358.85-5.82 358.85-12.03L358.85-12.03L358.85-12.03Q358.85-21.70 364.10-27.58L364.10-27.58L364.10-27.58Q369.73-33.92 379.52-33.92L379.52-33.92L379.52-33.92Q385.60-33.92 388.61-31.36L388.61-31.36L388.61-31.36Q390.85-29.44 390.85-26.30L390.85-26.30L390.85-26.30Q390.85-15.04 371.39-15.04L371.39-15.04L371.39-15.04Q371.14-13.38 371.14-11.97L371.14-11.97L371.14-11.97Q371.14-9.02 372.45-7.90L372.45-7.90L372.45-7.90Q373.76-6.78 376.19-6.78L376.19-6.78L376.19-6.78Q378.62-6.78 381.22-7.90L381.22-7.90L381.22-7.90Q383.81-9.02 384.90-10.82ZM371.84-17.79L371.84-17.79L371.84-17.79Q376.38-17.79 379.01-20.61L379.01-20.61L379.01-20.61Q381.63-23.30 381.63-27.58L381.63-27.58L381.63-27.58Q381.63-29.06 381.09-29.86L381.09-29.86L381.09-29.86Q380.54-30.66 379.46-30.66L379.46-30.66L379.46-30.66Q378.37-30.66 377.44-30.24L377.44-30.24L377.44-30.24Q376.51-29.82 375.55-28.42L375.55-28.42L375.55-28.42Q373.18-25.22 371.84-17.79ZM425.34-22.46L425.34-22.46L425.34-22.46Q426.24-24.83 426.24-26.88L426.24-26.88L426.24-26.88Q426.24-30.66 423.17-30.66L423.17-30.66L423.17-30.66Q421.57-30.66 420.26-29.22L420.26-29.22L420.26-29.22Q418.94-27.78 418.94-25.98L418.94-25.98L418.94-25.98Q418.94-24.70 419.97-23.68L419.97-23.68L419.97-23.68Q421.44-22.27 425.22-19.97L425.22-19.97L425.22-19.97Q428.99-17.66 430.43-15.78L430.43-15.78L430.43-15.78Q431.87-13.89 431.87-11.30L431.87-11.30L431.87-11.30Q431.87-8.70 430.62-6.34L430.62-6.34L430.62-6.34Q429.38-3.97 427.14-2.30L427.14-2.30L427.14-2.30Q422.34 1.28 414.66 1.28L414.66 1.28L414.66 1.28Q410.50 1.28 407.30-0.90L407.30-0.90L407.30-0.90Q404.10-3.01 404.10-5.50L404.10-5.50L404.10-5.50Q404.10-8 405.92-9.47L405.92-9.47L405.92-9.47Q407.74-10.94 410.43-10.94L410.43-10.94L410.43-10.94Q413.12-10.94 414.78-9.92L414.78-9.92L414.78-9.92Q413.95-7.81 413.95-6.40L413.95-6.40L413.95-6.40Q413.95-2.18 417.54-2.18L417.54-2.18L417.54-2.18Q419.07-2.18 420.10-3.14L420.10-3.14L420.10-3.14Q421.12-4.10 421.12-5.76L421.12-5.76L421.12-5.76Q421.12-9.02 415.62-12.48L415.62-12.48L415.62-12.48Q411.14-15.42 410.11-16.58L410.11-16.58L410.11-16.58Q408.38-18.62 408.38-21.18L408.38-21.18L408.38-21.18Q408.38-23.74 409.60-26.18L409.60-26.18L409.60-26.18Q410.82-28.61 413.06-30.34L413.06-30.34L413.06-30.34Q417.73-33.92 425.86-33.92L425.86-33.92L425.86-33.92Q430.02-33.92 432.48-32.26L432.48-32.26L432.48-32.26Q434.94-30.59 434.94-27.78L434.94-27.78L434.94-27.78Q434.94-24.96 433.25-23.36L433.25-23.36L433.25-23.36Q431.55-21.76 428.48-21.76L428.48-21.76L428.48-21.76Q426.37-21.76 425.34-22.46ZM451.26 1.28L451.26 1.28L451.26 1.28Q437.18 1.28 437.18-11.97L437.18-11.97L437.18-11.97Q437.18-21.38 442.37-27.46L442.37-27.46L442.37-27.46Q447.87-33.92 457.41-33.92L457.41-33.92L457.41-33.92Q464.32-33.92 467.84-30.72L467.84-30.72L467.84-30.72Q471.36-27.52 471.36-20.80L471.36-20.80L471.36-20.80Q471.36-10.56 465.86-4.61L465.86-4.61L465.86-4.61Q460.48 1.28 451.26 1.28ZM452.93-26.56L452.93-26.56L452.93-26.56Q452.16-24.83 451.55-22.24L451.55-22.24L451.55-22.24Q450.94-19.65 450.18-15.55L450.18-15.55L450.18-15.55Q449.41-11.46 449.41-6.40L449.41-6.40L449.41-6.40Q449.41-4.74 449.95-3.65L449.95-3.65L449.95-3.65Q450.50-2.56 451.97-2.56L451.97-2.56L451.97-2.56Q453.44-2.56 454.37-3.26L454.37-3.26L454.37-3.26Q455.30-3.97 456.00-5.63L456.00-5.63L456.00-5.63Q457.28-8.58 458.30-14.05L458.30-14.05L458.30-14.05Q459.33-19.52 459.42-21.89L459.42-21.89L459.42-21.89Q459.52-24.26 459.52-26.02L459.52-26.02L459.52-26.02Q459.52-27.78 459.01-28.93L459.01-28.93L459.01-28.93Q458.50-30.08 457.06-30.08L457.06-30.08L457.06-30.08Q455.62-30.08 454.66-29.18L454.66-29.18L454.66-29.18Q453.70-28.29 452.93-26.56ZM506.56-26.62L506.56-26.62L506.56-26.62Q506.56-23.94 504.32-22.27L504.32-22.27L504.32-22.27Q502.08-20.61 498.43-20.61L498.43-20.61L498.43-20.61Q496.90-20.61 496.00-21.06L496.00-21.06L496.00-21.06Q496.70-22.72 496.93-24.80L496.93-24.80L496.93-24.80Q497.15-26.88 497.15-27.46L497.15-27.46L497.15-27.46Q497.15-30.14 495.30-30.14L495.30-30.14L495.30-30.14Q494.02-30.14 492.58-28.54L492.58-28.54L492.58-28.54Q491.14-26.94 489.92-24.45L489.92-24.45L489.92-24.45Q487.23-18.69 487.23-12.86L487.23-12.86L487.23-12.86Q487.23-9.66 488.45-8.22L488.45-8.22L488.45-8.22Q489.66-6.78 492.35-6.78L492.35-6.78L492.35-6.78Q496.06-6.78 499.01-9.86L499.01-9.86L499.01-9.86Q499.84-10.82 500.29-11.90L500.29-11.90L500.29-11.90Q502.72-10.62 502.72-7.10L502.72-7.10L502.72-7.10Q502.72-3.52 498.75-1.15L498.75-1.15L498.75-1.15Q494.66 1.28 488.13 1.28L488.13 1.28L488.13 1.28Q475.14 1.28 475.14-12.48L475.14-12.48L475.14-12.48Q475.14-22.53 480.83-28.29L480.83-28.29L480.83-28.29Q486.34-33.92 496.45-33.92L496.45-33.92L496.45-33.92Q506.56-33.92 506.56-26.62ZM523.65-3.52L523.65-3.52L523.65-3.52Q521.66 1.28 515.33 1.28L515.33 1.28L515.33 1.28Q512.06 1.28 510.02-0.96L510.02-0.96L510.02-0.96Q508.29-2.94 508.29-4.93L508.29-4.93L508.29-4.93Q508.29-10.11 510.66-20.22L510.66-20.22L513.02-32.64L526.02-33.92L522.11-13.70L522.11-13.70Q521.02-8.96 521.02-7.30L521.02-7.30L521.02-7.30Q521.02-3.65 523.65-3.52ZM514.18-41.54L514.18-41.54L514.18-41.54Q514.18-44.03 516.26-45.38L516.26-45.38L516.26-45.38Q518.34-46.72 521.34-46.72L521.34-46.72L521.34-46.72Q524.35-46.72 526.18-45.38L526.18-45.38L526.18-45.38Q528-44.03 528-41.54L528-41.54L528-41.54Q528-39.04 525.98-37.76L525.98-37.76L525.98-37.76Q523.97-36.48 520.96-36.48L520.96-36.48L520.96-36.48Q517.95-36.48 516.06-37.76L516.06-37.76L516.06-37.76Q514.18-39.04 514.18-41.54ZM555.01-10.82L555.01-10.82L555.01-10.82Q556.61-9.73 556.61-7.33L556.61-7.33L556.61-7.33Q556.61-4.93 555.39-3.39L555.39-3.39L555.39-3.39Q554.18-1.86 552.19-0.83L552.19-0.83L552.19-0.83Q548.10 1.28 543.68 1.28L543.68 1.28L543.68 1.28Q539.26 1.28 536.67 0.32L536.67 0.32L536.67 0.32Q534.08-0.64 532.35-2.43L532.35-2.43L532.35-2.43Q528.96-5.82 528.96-12.03L528.96-12.03L528.96-12.03Q528.96-21.70 534.21-27.58L534.21-27.58L534.21-27.58Q539.84-33.92 549.63-33.92L549.63-33.92L549.63-33.92Q555.71-33.92 558.72-31.36L558.72-31.36L558.72-31.36Q560.96-29.44 560.96-26.30L560.96-26.30L560.96-26.30Q560.96-15.04 541.50-15.04L541.50-15.04L541.50-15.04Q541.25-13.38 541.25-11.97L541.25-11.97L541.25-11.97Q541.25-9.02 542.56-7.90L542.56-7.90L542.56-7.90Q543.87-6.78 546.30-6.78L546.30-6.78L546.30-6.78Q548.74-6.78 551.33-7.90L551.33-7.90L551.33-7.90Q553.92-9.02 555.01-10.82ZM541.95-17.79L541.95-17.79L541.95-17.79Q546.50-17.79 549.12-20.61L549.12-20.61L549.12-20.61Q551.74-23.30 551.74-27.58L551.74-27.58L551.74-27.58Q551.74-29.06 551.20-29.86L551.20-29.86L551.20-29.86Q550.66-30.66 549.57-30.66L549.57-30.66L549.57-30.66Q548.48-30.66 547.55-30.24L547.55-30.24L547.55-30.24Q546.62-29.82 545.66-28.42L545.66-28.42L545.66-28.42Q543.30-25.22 541.95-17.79ZM564.16-6.40L564.16-6.40L564.16-6.40Q564.16-8.13 565.06-12.48L565.06-12.48L568.45-29.76L564.67-29.76L564.93-31.68L564.93-31.68Q572.61-33.98 580.03-39.62L580.03-39.62L583.10-39.62L581.57-32.64L586.56-32.64L585.98-29.76L581.06-29.76L577.79-12.48L577.79-12.48Q576.96-8.51 576.96-7.17L576.96-7.17L576.96-7.17Q576.96-4.10 579.65-3.46L579.65-3.46L579.65-3.46Q579.01-1.28 576.70 0L576.70 0L576.70 0Q574.40 1.28 571.14 1.28L571.14 1.28L571.14 1.28Q567.87 1.28 566.02-0.77L566.02-0.77L566.02-0.77Q564.16-2.82 564.16-6.40ZM606.59-7.23L606.59-7.23L606.59-7.23Q603.26-3.78 597.18-3.78L597.18-3.78L597.18-3.78Q589.57-3.78 587.97-9.34L587.97-9.34L587.97-9.34Q587.46-11.01 587.46-12.86L587.46-12.86L587.46-12.86Q587.46-14.72 587.84-16.64L587.84-16.64L590.85-32.64L603.84-33.92L600.32-15.30L600.32-15.30Q600.19-14.46 600-13.57L600-13.57L600-13.57Q599.81-12.67 599.81-11.74L599.81-11.74L599.81-11.74Q599.81-10.82 600.13-10.21L600.13-10.21L600.13-10.21Q600.45-9.60 600.90-9.22L600.90-9.22L600.90-9.22Q601.66-8.70 603.04-8.70L603.04-8.70L603.04-8.70Q604.42-8.70 605.60-10.37L605.60-10.37L605.60-10.37Q606.78-12.03 607.36-14.91L607.36-14.91L610.88-32.64L623.49-33.92L618.69-8.77L618.69-8.77Q616.32 3.52 611.46 8.38L611.46 8.38L611.46 8.38Q608.96 10.88 605.73 11.87L605.73 11.87L605.73 11.87Q602.50 12.86 598.34 12.86L598.34 12.86L598.34 12.86Q591.62 12.86 587.78 10.75L587.78 10.75L587.78 10.75Q583.94 8.64 583.94 5.12L583.94 5.12L583.94 5.12Q583.94 2.50 585.92 0.99L585.92 0.99L585.92 0.99Q587.90-0.51 590.98-0.51L590.98-0.51L590.98-0.51Q593.66-0.51 595.71 0.64L595.71 0.64L595.71 0.64Q596.93 1.34 597.50 2.24L597.50 2.24L597.50 2.24Q596.03 3.52 596.03 5.63L596.03 5.63L596.03 5.63Q596.03 8.45 598.59 8.45L598.59 8.45L598.59 8.45Q602.82 8.45 605.25-1.28L605.25-1.28L605.25-1.28Q605.95-4.16 606.59-7.23ZM638.14-3.07L638.14-3.07L646.08-44.80L659.07-46.08L657.09-36.29L657.09-36.29Q656.38-33.28 655.49-31.17L655.49-31.17L655.49-31.17Q656.90-32.96 659.97-33.66L659.97-33.66L659.97-33.66Q660.86-33.92 661.95-33.92L661.95-33.92L661.95-33.92Q667.90-33.92 671.17-30.30L671.17-30.30L671.17-30.30Q674.43-26.69 674.43-19.71L674.43-19.71L674.43-19.71Q674.43-10.62 669.25-4.93L669.25-4.93L669.25-4.93Q663.68 1.28 653.57 1.28L653.57 1.28L653.57 1.28Q646.59 1.28 641.34-1.02L641.34-1.02L641.34-1.02Q639.49-1.86 638.14-3.07ZM654.40-22.40L651.01-3.65L651.01-3.65Q652.35-2.50 654.02-2.50L654.02-2.50L654.02-2.50Q655.68-2.50 656.64-3.14L656.64-3.14L656.64-3.14Q657.60-3.78 658.30-5.06L658.30-5.06L658.30-5.06Q660.22-8.51 661.76-19.07L661.76-19.07L661.76-19.07Q662.21-22.08 662.21-25.09L662.21-25.09L662.21-25.09Q662.21-28.10 661.54-29.06L661.54-29.06L661.54-29.06Q660.86-30.02 659.58-30.02L659.58-30.02L659.58-30.02Q655.68-30.02 654.40-22.40L654.40-22.40ZM704.19-10.82L704.19-10.82L704.19-10.82Q705.79-9.73 705.79-7.33L705.79-7.33L705.79-7.33Q705.79-4.93 704.58-3.39L704.58-3.39L704.58-3.39Q703.36-1.86 701.38-0.83L701.38-0.83L701.38-0.83Q697.28 1.28 692.86 1.28L692.86 1.28L692.86 1.28Q688.45 1.28 685.86 0.32L685.86 0.32L685.86 0.32Q683.26-0.64 681.54-2.43L681.54-2.43L681.54-2.43Q678.14-5.82 678.14-12.03L678.14-12.03L678.14-12.03Q678.14-21.70 683.39-27.58L683.39-27.58L683.39-27.58Q689.02-33.92 698.82-33.92L698.82-33.92L698.82-33.92Q704.90-33.92 707.90-31.36L707.90-31.36L707.90-31.36Q710.14-29.44 710.14-26.30L710.14-26.30L710.14-26.30Q710.14-15.04 690.69-15.04L690.69-15.04L690.69-15.04Q690.43-13.38 690.43-11.97L690.43-11.97L690.43-11.97Q690.43-9.02 691.74-7.90L691.74-7.90L691.74-7.90Q693.06-6.78 695.49-6.78L695.49-6.78L695.49-6.78Q697.92-6.78 700.51-7.90L700.51-7.90L700.51-7.90Q703.10-9.02 704.19-10.82ZM691.14-17.79L691.14-17.79L691.14-17.79Q695.68-17.79 698.30-20.61L698.30-20.61L698.30-20.61Q700.93-23.30 700.93-27.58L700.93-27.58L700.93-27.58Q700.93-29.06 700.38-29.86L700.38-29.86L700.38-29.86Q699.84-30.66 698.75-30.66L698.75-30.66L698.75-30.66Q697.66-30.66 696.74-30.24L696.74-30.24L696.74-30.24Q695.81-29.82 694.85-28.42L694.85-28.42L694.85-28.42Q692.48-25.22 691.14-17.79ZM713.34-6.40L713.34-6.40L713.34-6.40Q713.34-8.13 714.24-12.48L714.24-12.48L717.63-29.76L713.86-29.76L714.11-31.68L714.11-31.68Q721.79-33.98 729.22-39.62L729.22-39.62L732.29-39.62L730.75-32.64L735.74-32.64L735.17-29.76L730.24-29.76L726.98-12.48L726.98-12.48Q726.14-8.51 726.14-7.17L726.14-7.17L726.14-7.17Q726.14-4.10 728.83-3.46L728.83-3.46L728.83-3.46Q728.19-1.28 725.89 0L725.89 0L725.89 0Q723.58 1.28 720.32 1.28L720.32 1.28L720.32 1.28Q717.06 1.28 715.20-0.77L715.20-0.77L715.20-0.77Q713.34-2.82 713.34-6.40ZM736.45-6.40L736.45-6.40L736.45-6.40Q736.45-8.13 737.34-12.48L737.34-12.48L740.74-29.76L736.96-29.76L737.22-31.68L737.22-31.68Q744.90-33.98 752.32-39.62L752.32-39.62L755.39-39.62L753.86-32.64L758.85-32.64L758.27-29.76L753.34-29.76L750.08-12.48L750.08-12.48Q749.25-8.51 749.25-7.17L749.25-7.17L749.25-7.17Q749.25-4.10 751.94-3.46L751.94-3.46L751.94-3.46Q751.30-1.28 748.99 0L748.99 0L748.99 0Q746.69 1.28 743.42 1.28L743.42 1.28L743.42 1.28Q740.16 1.28 738.30-0.77L738.30-0.77L738.30-0.77Q736.45-2.82 736.45-6.40ZM784.19-10.82L784.19-10.82L784.19-10.82Q785.79-9.73 785.79-7.33L785.79-7.33L785.79-7.33Q785.79-4.93 784.58-3.39L784.58-3.39L784.58-3.39Q783.36-1.86 781.38-0.83L781.38-0.83L781.38-0.83Q777.28 1.28 772.86 1.28L772.86 1.28L772.86 1.28Q768.45 1.28 765.86 0.32L765.86 0.32L765.86 0.32Q763.26-0.64 761.54-2.43L761.54-2.43L761.54-2.43Q758.14-5.82 758.14-12.03L758.14-12.03L758.14-12.03Q758.14-21.70 763.39-27.58L763.39-27.58L763.39-27.58Q769.02-33.92 778.82-33.92L778.82-33.92L778.82-33.92Q784.90-33.92 787.90-31.36L787.90-31.36L787.90-31.36Q790.14-29.44 790.14-26.30L790.14-26.30L790.14-26.30Q790.14-15.04 770.69-15.04L770.69-15.04L770.69-15.04Q770.43-13.38 770.43-11.97L770.43-11.97L770.43-11.97Q770.43-9.02 771.74-7.90L771.74-7.90L771.74-7.90Q773.06-6.78 775.49-6.78L775.49-6.78L775.49-6.78Q777.92-6.78 780.51-7.90L780.51-7.90L780.51-7.90Q783.10-9.02 784.19-10.82ZM771.14-17.79L771.14-17.79L771.14-17.79Q775.68-17.79 778.30-20.61L778.30-20.61L778.30-20.61Q780.93-23.30 780.93-27.58L780.93-27.58L780.93-27.58Q780.93-29.06 780.38-29.86L780.38-29.86L780.38-29.86Q779.84-30.66 778.75-30.66L778.75-30.66L778.75-30.66Q777.66-30.66 776.74-30.24L776.74-30.24L776.74-30.24Q775.81-29.82 774.85-28.42L774.85-28.42L774.85-28.42Q772.48-25.22 771.14-17.79ZM812.35-17.98L812.35-17.98L812.35-17.98Q814.66-22.08 814.66-26.24L814.66-26.24L814.66-26.24Q814.66-28.99 812.67-28.99L812.67-28.99L812.67-28.99Q811.14-28.99 809.54-26.37L809.54-26.37L809.54-26.37Q807.87-23.74 807.36-20.35L807.36-20.35L804.03 0L790.78 1.28L797.31-32.64L807.87-33.92L806.72-27.46L806.72-27.46Q809.86-33.92 816.90-33.92L816.90-33.92L816.90-33.92Q820.61-33.92 822.62-32L822.62-32L822.62-32Q824.64-30.08 824.64-26.14L824.64-26.14L824.64-26.14Q824.64-22.21 822.05-19.71L822.05-19.71L822.05-19.71Q819.46-17.22 815.04-17.22L815.04-17.22L815.04-17.22Q813.12-17.22 812.35-17.98Z" fill="#ffd5af"></path></g></g><style>text {
  font-size: 64px;
  font-family: Arial Black;
  dominant-baseline: central;
  text-anchor: middle;
}</style></svg>