<?xml version="1.0" encoding="UTF-8" standalone="no"?>
<!-- Created with Inkscape (http://www.inkscape.org/) -->

<svg
   width="946.88281"
   height="1686.9088"
   viewBox="0 0 946.88281 1686.9088"
   version="1.1"
   id="svg1"
   xml:space="preserve"
   inkscape:version="1.3.2 (091e20ef0f, 2023-11-25, custom)"
   sodipodi:docname="lily.svg"
   xmlns:inkscape="http://www.inkscape.org/namespaces/inkscape"
   xmlns:sodipodi="http://sodipodi.sourceforge.net/DTD/sodipodi-0.dtd"
   xmlns="http://www.w3.org/2000/svg"
   xmlns:svg="http://www.w3.org/2000/svg"><sodipodi:namedview
     id="namedview1"
     pagecolor="#ffffff"
     bordercolor="#cccccc"
     borderopacity="1"
     inkscape:showpageshadow="0"
     inkscape:pageopacity="1"
     inkscape:pagecheckerboard="0"
     inkscape:deskcolor="#d1d1d1"
     inkscape:document-units="px"
     showgrid="false"
     inkscape:zoom="0.5"
     inkscape:cx="1461"
     inkscape:cy="980"
     inkscape:window-width="3826"
     inkscape:window-height="2105"
     inkscape:window-x="0"
     inkscape:window-y="41"
     inkscape:window-maximized="0"
     inkscape:current-layer="svg1"><inkscape:grid
       id="grid1"
       units="px"
       originx="2272.0409"
       originy="538.40539"
       spacingx="1"
       spacingy="1"
       empcolor="#0099e5"
       empopacity="0.30196078"
       color="#0099e5"
       opacity="0.14901961"
       empspacing="5"
       dotted="false"
       gridanglex="30"
       gridanglez="30"
       visible="false" /></sodipodi:namedview><defs
     id="defs1" /><path
     id="path93"
     style="fill:#333333;fill-opacity:1;stroke:none;stroke-width:4.79502;stroke-linecap:round;stroke-dasharray:none;stroke-opacity:1"
     d="M 472.4395,0 C 347.1406,3.0000774e-4 226.9737,50.22409 138.3741,139.62271 49.7746,229.02134 -9.999985e-5,350.27175 0,476.70031 v 690.50989 h 77.0371 l 0.1055,-0.8568 9.334,-75.5779 9.0234,76.4347 h 109.1875 l 2.7344,-31.2353 9.1719,-104.7367 8.8652,105.924 2.5156,30.048 h 565.332 l 7.7325,-141.8601 8.9023,-163.31299 8.6074,165.16319 7.2969,140.0099 H 946.8828 V 476.70031 h -2 C 944.8829,350.27109 895.1077,229.02009 806.5073,139.62136 717.9069,50.22262 597.7391,-7.1999226e-4 472.4395,0 Z"
     sodipodi:nodetypes="cssccccccccccccccccccsc"
     inkscape:label="hair" /><path
     id="path116"
     style="fill:#c3b2e7;fill-opacity:1;stroke:none;stroke-width:5.03162;stroke-linecap:round;stroke-dasharray:none;stroke-opacity:1"
     d="m 458.015,1072.3544 a 353.16716,152.62879 0 0 0 -353.1668,152.6291 v 309.2968 A 353.16716,152.62879 0 0 0 458.015,1686.9088 353.16716,152.62879 0 0 0 811.1827,1534.2803 V 1224.9835 A 353.16716,152.62879 0 0 0 458.015,1072.3544 Z"
     inkscape:label="dress" /><path
     id="path110"
     style="fill:#ede3d1;fill-opacity:1;stroke:none;stroke-width:4.03927;stroke-linecap:round;stroke-dasharray:none;stroke-opacity:1"
     d="m 323.3196,174.05073 -5.3574,116.8125 -2.9942,65.27539 A 524.97237,384.80903 0 0 0 186.9544,405.8105 v 154.46484 a 67.001846,62.761024 0 0 0 -0.4766,-0.0117 67.001846,62.761024 0 0 0 -67.002,62.76172 67.001846,62.761024 0 0 0 67.002,62.75977 67.001846,62.761024 0 0 0 0.4766,-0.0293 v 82.60742 a 295.28143,268.20522 0 0 0 166.5,240.95507 v 194.4649 a 128.78235,224.64042 0 0 0 128.7812,224.6406 128.78235,224.64042 0 0 0 128.7832,-224.6406 V 1009.3183 A 295.28143,268.20522 0 0 0 777.5169,768.36323 v -71.39648 a 67.001846,62.761024 0 0 0 16.0605,1.96875 67.001846,62.761024 0 0 0 67.002,-62.76367 67.001846,62.761024 0 0 0 -67.002,-62.75977 67.001846,62.761024 0 0 0 -16.0605,1.96875 V 392.83784 A 524.97237,384.80903 0 0 0 494.095,331.92768 524.97237,384.80903 0 0 0 335.8118,351.12495 l -5.0879,-72.11524 z"
     inkscape:label="face" /><g
     id="g116"
     inkscape:label="expressions"
     transform="translate(1212.744,572.48394)"><ellipse
       style="fill:#2b343b;fill-opacity:1;stroke:none;stroke-width:5;stroke-linecap:round;stroke-dasharray:none;stroke-opacity:1"
       id="path111"
       cx="-886.6983"
       cy="8.6545954"
       rx="36.540554"
       ry="54.807766"
       inkscape:label="left-eye" /><ellipse
       style="fill:#f9a474;fill-opacity:1;stroke:none;stroke-width:5;stroke-linecap:round;stroke-dasharray:none;stroke-opacity:1"
       id="path111-1"
       cx="-959.77936"
       cy="225.98767"
       rx="36.540554"
       ry="54.807766"
       inkscape:label="left-spot" /><ellipse
       style="fill:#f9a474;fill-opacity:1;stroke:none;stroke-width:5;stroke-linecap:round;stroke-dasharray:none;stroke-opacity:1"
       id="path111-1-4"
       cx="-518.82574"
       cy="225.98767"
       rx="36.540554"
       ry="54.807766"
       inkscape:label="right-spot" /><ellipse
       style="fill:#333333;fill-opacity:1;stroke:none;stroke-width:5;stroke-linecap:round;stroke-dasharray:none;stroke-opacity:1"
       id="path111-3"
       cx="-578.38507"
       cy="17.24456"
       rx="36.540554"
       ry="54.807766"
       inkscape:label="right-eye" /><path
       style="fill:none;fill-opacity:1;stroke:#e0d5c1;stroke-width:5;stroke-linecap:round;stroke-dasharray:none;stroke-opacity:1"
       d="m -698.4725,138.81746 c -14.5277,21.71752 -35.87,11.599 -53.756,10.7125"
       id="path112"
       sodipodi:nodetypes="cc"
       inkscape:label="nose" /><path
       style="fill:none;fill-opacity:1;stroke:#696969;stroke-width:10;stroke-linecap:round;stroke-dasharray:none;stroke-opacity:1"
       d="m -787.2471,241.91319 c 33.9761,24.0532 70.2188,19.505 107.8724,-2.8479"
       id="path113"
       sodipodi:nodetypes="cc"
       inkscape:label="lips" /><path
       style="fill:none;fill-opacity:1;stroke:#696969;stroke-width:10;stroke-linecap:round;stroke-dasharray:none;stroke-opacity:1"
       d="m -930.7421,-68.50892 c 24.1728,-10.60645 47.253,-23.38081 85.8854,-5.29772"
       id="path114"
       sodipodi:nodetypes="cc"
       inkscape:label="left-brow" /><path
       style="fill:none;fill-opacity:1;stroke:#696969;stroke-width:10;stroke-linecap:round;stroke-dasharray:none;stroke-opacity:1"
       d="m -625.2709,-70.7068 c 23.0295,-13.815 48.2046,-23.01271 85.8854,-5.29772"
       id="path114-8"
       sodipodi:nodetypes="cc"
       inkscape:label="right-brow" /></g><path
     id="path115-1"
     style="fill:none;fill-opacity:1;stroke:#f682a5;stroke-width:21.1645;stroke-linecap:round;stroke-dasharray:none;stroke-opacity:1"
     d="m 636.0986,431.69494 c -81.7653,8.2e-4 -153.0123,68.49449 -153.0125,152.39163 2e-4,83.89714 71.2472,151.42787 153.0125,151.42869 81.766,2e-4 136.6893,-68.61332 136.6895,-152.51118 -2e-4,-83.89786 -54.9235,-151.30934 -136.6895,-151.30914 z m -310.3243,0.12305 c -83.7709,3.9e-4 -151.6803,67.95787 -151.6796,151.78711 4e-4,83.82848 67.9095,151.78477 151.6796,151.78516 83.7702,-3.4e-4 157.3114,-67.47517 157.3118,-151.30369 7e-4,-83.82928 -73.5409,-152.26824 -157.3118,-152.26858 z"
     sodipodi:nodetypes="cccccccccc"
     inkscape:label="glasses" /><path
     style="fill:#efceb9;fill-opacity:1;stroke:none;stroke-width:20;stroke-linecap:round;stroke-dasharray:none;stroke-opacity:1"
     d="m 353.4543,1009.3183 c 69.2514,25.6036 136.6001,45.7124 257.5645,0 v 70.7308 c -73.0532,14.7405 -120.6111,51.4192 -257.5645,-2.6994 z"
     id="path115"
     sodipodi:nodetypes="ccccc"
     inkscape:label="neck-shadow" /></svg>
