<?xml version="1.0" encoding="UTF-8"?>
<svg id="Layer_1" data-name="Layer 1" xmlns="http://www.w3.org/2000/svg" version="1.1" viewBox="0 0 1366 768">
  <defs>
    <style>
      .cls-1 {
        fill: #f79420;
      }

      .cls-1, .cls-2 {
        stroke-width: 0px;
      }

      .cls-2 {
        fill: #0075bb;
      }
    </style>
  </defs>
  <path class="cls-2" d="M743.56,372.5c4.9-5.85,4.9-13.66,4.9-19.84v-46.62c0-3.55,0-6.14,1.57-8.15,1.53-2.16,4.46-3.22,8.77-3.22s7.2,1.06,8.73,3.22c1.57,2.01,1.57,4.6,1.57,8.15v45.56c0,9.97,0,22.29-8.95,32.59-6.76,7.86-17.39,13.08-34.89,13.08s-28.31-5.52-34.78-13.08c-8.91-10.3-8.91-21.81-8.91-32.59v-45.56c0-3.55,0-6.14,1.53-8.15,1.53-2.16,4.31-3.22,8.91-3.22s7.23,1.06,8.77,3.22c1.53,2.01,1.53,4.6,1.53,8.15v46.62c0,6.18,0,13.99,4.93,19.84,3.69,4.46,9.68,6.94,18.16,6.94s14.47-2.48,18.16-6.94M928.57,340.97c-10.74-6.76-25.21-10.59-25.21-20.17,0-5.52,4.6-9.54,11.69-9.54,8.44,0,13.52,6.03,18.6,6.03,4.79,0,8.62-5.41,8.62-9.72,0-7.82-13.55-13.81-27.07-13.81-18.45,0-32.62,11.21-32.62,28.13,0,19.07,18.34,26.16,28.17,31.38,6.47,3.4,12.6,7.38,12.6,14.61s-5.7,11.55-13.7,11.55c-10.3,0-15.05-7.56-20.75-7.56-5.08,0-8.33,5.7-8.33,10.01s3.73,7.71,8.18,10.01c6.28,3.21,14.14,5.08,21.52,5.08,17.86,0,33.83-10.78,33.83-29.99,0-12.79-7.05-20.64-15.53-26.01M684.74,523.61v-70.73c0-3.55,0-6.17-1.57-8.18-1.53-2.16-4.6-3.21-8.77-3.21s-7.38,1.06-8.91,3.21c-1.53,2.01-1.53,4.64-1.53,8.18v79.35c0,6.94,2.45,9.87,9.86,9.87h39.2c3.4,0,5.85,0,7.85-1.53,2.01-1.39,3.07-3.69,3.07-7.71s-1.06-6.32-3.07-7.67c-2.01-1.57-4.46-1.57-7.85-1.57h-28.28ZM762.7,523.61v-70.73c0-3.55,0-6.17-1.53-8.18-1.53-2.16-4.6-3.21-8.77-3.21s-7.38,1.06-8.91,3.21c-1.54,2.01-1.54,4.64-1.54,8.18v79.35c0,6.94,2.45,9.87,9.83,9.87h39.24c3.4,0,5.85,0,7.86-1.53,1.97-1.39,3.07-3.69,3.07-7.71s-1.1-6.32-3.07-7.67c-2.01-1.57-4.46-1.57-7.86-1.57h-28.32ZM840.7,452.88c0-3.4,0-6.17-1.53-8.18-1.53-2.16-4.31-3.21-8.77-3.21s-7.38,1.06-8.91,3.21c-1.53,2.01-1.53,4.79-1.53,8.18v78.59c0,3.69,0,6.32,1.53,8.29,1.54,2.19,4.31,3.25,8.91,3.25s7.24-1.06,8.77-3.25c1.53-1.97,1.53-4.6,1.53-8.29v-78.59ZM989.62,476.26l46.76,58.45c4.46,5.52,7.53,8.59,13.7,8.59s9.39-2.92,9.39-8.29v-82.13c0-3.55,0-6.17-1.54-8.18-1.53-2.01-4.16-3.21-8.47-3.21s-6.91,1.21-8.44,3.21c-1.57,2.01-1.57,4.64-1.57,8.18v54.58l-44.9-57.07c-4.17-5.37-7.24-8.91-14.62-8.91-6.94,0-10.3,2.92-10.3,8.15v81.84c0,3.69,0,6.32,1.53,8.29,1.53,2.01,4.17,3.25,8.48,3.25s6.91-1.24,8.44-3.25c1.54-1.97,1.54-4.75,1.54-8.29v-55.2ZM1131.78,525.33c-14.91,0-29.7-10.63-29.7-34.01s14.17-32.3,28.94-32.3c5.22,0,9.39,1.24,13.52,2.92,5.41,2.16,8.62,4.46,11.73,4.46,5.52,0,8.29-6.61,8.29-10.63,0-3.36-2.16-6.28-6.61-8.91-6.8-3.98-16.48-6.28-26.31-6.28-26.63,0-50.78,16.73-50.78,51.37s23.09,51.84,50.6,51.84c9.1,0,19.55-2.01,26.63-6.32,4.17-2.45,6.47-5.37,6.47-9.06,0-3.98-2.92-10.16-8.15-10.16-3.11,0-6.03,2.16-11.25,4.31-4.27,1.68-8.62,2.78-13.37,2.78M665.56,398.52c-.51-2.41-2.63-4.35-7.93-8.4l-10.3-7.82-8.51-6.28c-3.76-2.78-8.81-2.96-12.82-.55-4.68,2.81-10.37,4.27-16.95,4.27-19.25,0-31.24-12.6-31.24-34.45s11.83-34.16,31.09-34.16,31.2,12.64,31.2,34.45c0,2.81-.18,5.44-.58,7.93-.81,5.19,1.35,10.41,5.59,13.48l6.25,4.57c1.46,1.02,3.51.55,4.31-1.02,3.69-7.38,5.7-15.89,5.7-25.25,0-29.85-20.17-51.84-52.03-51.84s-52.76,21.99-52.76,52.14,20.13,51.88,51.99,51.88c6.94,0,11.25-1.1,11.25-1.1,3.51-.7,7.42-1.9,10.78-3.18l7.27,6.69c7.05,6.5,10.96,8.66,18.49,7.05,7.67-1.64,9.9-5.26,9.21-8.4M860.18,378.83c-2.01-1.39-4.46-1.53-7.71-1.53h-39.6v-63.53h36.06c3.25,0,5.7,0,7.71-1.39,2.01-1.39,3.07-3.69,3.07-7.52s-1.06-6.17-3.07-7.56c-2.01-1.39-4.46-1.53-7.71-1.53h-46.37c-7.09,0-9.83,2.63-9.83,9.83v79.87c0,7.09,2.45,9.86,9.83,9.86h49.91c3.25,0,5.7,0,7.71-1.39,1.97-1.39,3.21-3.69,3.21-7.56s-1.24-6.14-3.21-7.52M843.08,351.61c3.4,0,5.85-.18,7.86-1.53,2.01-1.39,3.07-3.69,3.07-7.56s-1.06-5.99-3.07-7.38c-2.01-1.39-4.46-1.53-7.86-1.53h-11.54c-5.55,0-10.05,4.49-10.05,10.08v5.01c0,1.61,1.28,2.92,2.89,2.92h18.7ZM1001.13,322.96c-6.68,0-12.09,5.44-12.09,12.13v49.58c0,3.69,0,6.28,1.53,8.29,1.54,2.16,4.6,3.25,8.92,3.25s7.23-1.1,8.77-3.25c1.53-2.01,1.53-4.6,1.53-8.29v-58.79c0-1.61-1.28-2.92-2.89-2.92h-5.77ZM1037.78,297.42c-1.97-1.53-4.46-1.68-7.67-1.68h-61.23c-3.36,0-5.84.14-7.85,1.68-1.97,1.39-3.07,3.54-3.07,7.56s1.1,6.47,3.07,7.82c2.01,1.57,4.49,1.57,7.85,1.57h61.23c3.22,0,5.7,0,7.67-1.57,2.01-1.35,3.1-3.65,3.1-7.82s-1.1-6.17-3.1-7.56M644.4,531.18l-31.53-78.91c-2.78-6.8-5.08-11.11-12.46-11.11s-9.86,4.16-12.6,10.92l-32.77,78.95c-.95,2.3-1.53,3.98-1.53,5.85,0,3.51,2.45,6.14,9.06,6.14,7.86,0,10.16-3.54,12.6-9.86l6.47-17.06,6.47-16.92,11.55-30,11.4,30h-3.87c-5.26,0-9.94,3.29-11.73,8.26l-1.72,4.79c-.69,1.86.7,3.87,2.74,3.87h20.86l6.32,17.06c2.6,6.94,4.9,9.86,12.13,9.86,6.47,0,9.86-2.3,9.86-6.32,0-1.53-.47-3.54-1.24-5.52M950.49,531.18l-31.53-78.91c-2.78-6.8-5.11-11.11-12.49-11.11s-9.83,4.16-12.6,10.92l-32.77,78.95c-.91,2.3-1.54,3.98-1.54,5.85,0,3.51,2.49,6.14,9.1,6.14,7.82,0,10.12-3.54,12.6-9.86l6.47-17.06,6.47-16.92h-.04l11.55-30,11.4,30h-3.84c-5.3,0-9.97,3.29-11.76,8.26l-1.72,4.79c-.66,1.86.73,3.87,2.74,3.87h20.9l6.28,17.06c2.63,6.94,4.93,9.86,12.17,9.86,6.47,0,9.83-2.3,9.83-6.32,0-1.53-.44-3.54-1.2-5.52M1252.78,525.7c-2.01-1.39-4.49-1.53-7.71-1.53h-39.6v-63.54h36.06c3.21,0,5.7,0,7.67-1.39,2.01-1.39,3.11-3.69,3.11-7.52s-1.1-6.18-3.11-7.53c-1.97-1.39-4.46-1.53-7.67-1.53h-46.36c-7.09,0-9.86,2.59-9.86,9.83v79.86c0,7.05,2.48,9.83,9.86,9.83h49.91c3.22,0,5.7,0,7.71-1.39,1.97-1.39,3.22-3.69,3.22-7.53s-1.24-6.17-3.22-7.56M1235.69,498.48c3.4,0,5.85-.15,7.86-1.53,2.01-1.39,3.07-3.69,3.07-7.53s-1.06-6.03-3.07-7.41c-2.01-1.39-4.46-1.53-7.86-1.53h-11.55c-5.55,0-10.05,4.53-10.05,10.08v5.04c0,1.61,1.28,2.89,2.89,2.89h18.71Z"/>
  <path class="cls-1" d="M274.54,320.47l4.46-15.27c1.64-5.66,6.83-9.54,12.75-9.54h35.55l-15.75-48.48c9.94,1.61,19.66,4.49,28.86,8.55l11.36,35c.95,2.92,3.69,4.93,6.76,4.93h103.83c5.74,0,11.14,1.79,15.6,5.22,4.06,3.14,7.05,7.42,8.66,12.39,1.61,4.97,1.68,10.19.26,15.09-1.57,5.41-4.86,10.05-9.54,13.41l-9.86,7.16c-.4.33-.88.48-1.39.48-.66,0-1.35-.29-1.83-.8-.29-.37-.66-.95-.58-1.83.69-7.13.33-13.41-1.21-19.8-.91-3.8-4.35-6.5-8.26-6.5h-179.68Z"/>
  <path class="cls-1" d="M191.6,542.91c-5.15-.14-10.08-1.83-14.29-4.9-4.24-3.07-7.38-7.23-9.1-12.09-1.9-5.26-1.97-10.96-.18-16.44l3.87-11.87c.4-1.24,1.5-1.68,2.3-1.68.4,0,1.42.15,2.05,1.21,3.69,6.36,7.64,11.29,12.42,15.49,1.57,1.35,3.58,2.12,5.63,2.12,1.83,0,3.54-.55,5.01-1.61l145.15-105.47,5.33,15.05c1.94,5.52,0,11.73-4.71,15.16l-137.81,100.14c-4.42,3.22-9.61,4.93-14.94,4.93l-.73-.04ZM422.39,512.15c-.18,0-.37-.07-.51-.22l-31.9-23.82-8.7-26.31-40.08-123.31,16.33-.44c5.77,0,10.82,3.69,12.6,9.17l10.96,33.8,41.07-29.92c.88,5.85,1.35,11.84,1.35,17.79,0,4.09-.22,8.26-.66,12.39l-29.52,21.52c-2.48,1.83-3.51,5.01-2.56,7.97l32.08,98.72c.15.48.29.99.44,1.46.07.33.03.58-.15.8-.18.22-.48.4-.77.4M206.73,471.19c-7.09-7.16-13.26-15.16-18.34-23.82l11.76-36.61c.91-2.96-.11-6.14-2.59-7.93l-83.99-61.05c-4.68-3.36-7.97-8-9.53-13.41-1.46-4.93-1.35-10.12.25-15.09,1.61-4.97,4.6-9.24,8.66-12.39,4.46-3.43,9.83-5.26,15.6-5.26h12.02c.99,0,1.79.55,2.19,1.43.4.88.26,1.83-.36,2.56-4.79,5.44-8.04,10.63-10.6,16.84-1.46,3.58-.26,7.71,2.92,10.01l145.05,105.4-12.28,9.5c-1.83,1.39-3.87,2.41-6.1,2.81-3.65.59-7.23-.26-10.12-2.34l-28.42-20.68-16.11,50.02ZM223.71,369.15c-4.9-3.32-7.01-9.46-5.19-15.09l10.92-33.58h-52.21c4.6-8.95,10.3-17.28,17.02-24.84h38.11c3.07,0,5.81-1.97,6.76-4.9l32.04-98.75c1.79-5.48,5.19-10.05,9.83-13.19,4.24-2.89,9.25-4.42,14.47-4.42s10.2,1.53,14.43,4.42c4.64,3.14,8.04,7.71,9.79,13.19l3.69,11.29c.33.99-.07,1.75-.36,2.12-.44.66-1.17,1.02-1.9,1.02-.33,0-.66-.07-.95-.18-6.5-2.81-12.42-4.24-19.18-4.71h-.58c-3.69,0-6.94,2.34-8.11,5.88l-55.46,170.66-13.12-8.91Z"/>
  <path class="cls-2" d="M249.63,258.39l8.99-27.73c-45.3,11.58-82.35,43.99-100.32,86.37-1.57,3.69-.29,7.93,3.03,10.16l14.69,9.94c11.47-35.99,38.73-64.96,73.62-78.73"/>
  <path class="cls-2" d="M392.43,295.65h29.01c-24.3-38.47-65.73-65.07-113.48-69.09-3.98-.33-7.63,2.23-8.69,6.06l-4.82,17.06c.37,0,.7-.04,1.02-.04,39.02,0,73.95,17.94,96.96,46"/>
  <path class="cls-2" d="M420.85,375.04c0,24.81-7.27,47.93-19.77,67.44l8.99,27.66c21.45-25.83,34.38-58.97,34.38-95.1,0-11.33-1.28-22.36-3.73-32.96-.88-3.87-4.42-6.58-8.37-6.47l-17.72.58c3.98,12.24,6.21,25.28,6.21,38.84"/>
  <path class="cls-2" d="M170.4,383.1l-23.6-17.13c-.18,2.99-.29,6.03-.29,9.1,0,44.39,19.55,84.29,50.49,111.58,2.96,2.63,7.42,2.81,10.56.36l14.1-10.74c-29.19-21.34-48.81-54.95-51.26-93.16"/>
  <path class="cls-2" d="M413.77,529.22l-55.64-40.41c-2.45-1.79-5.66-2.12-8.4-.8-16.4,7.97-34.82,12.39-54.26,12.39-10.7,0-21.12-1.35-31.05-3.91l-23.53,17.14c16.92,6.68,35.33,10.41,54.58,10.41s37.67-3.73,54.58-10.41l34.01,24.7c7.96,5.77,18.56,6.28,27.04,1.28l2.23-1.28c3.36-2.01,3.62-6.79.44-9.1"/>
</svg>